<svg xmlns="http://www.w3.org/2000/svg" xmlns:xlink="http://www.w3.org/1999/xlink" id="Layer_1" x="0px" y="0px" viewBox="0 0 1388 1639.1" style="enable-background:new 0 0 1388 1639.1;" xml:space="preserve"><style type="text/css">	.st0{display:none;fill:#FFFFFE;}	.st1{fill:#3B7F47;}	.st2{fill:#F8CD47;}	.st3{fill:#3A7F47;}	.st4{fill:#DA3932;}</style><g>	<path class="st0" d="M1388.9,1640.4c-463,0-925.9,0-1388.9,0C0,1093.1,0,545.8,0-1.5c463,0,925.9,0,1388.9,0   C1388.9,545.8,1388.9,1093.1,1388.9,1640.4z M512.9,1614.1c1,0.1,1.9,0.2,2.9,0.2c12.8-0.1,25.5-1.7,38-4.5   c55.3-12.5,101.8-53.1,122.1-104.2c5-12.5,8.4-25.5,10.3-38.8c1.2-8.4,1.4-16.9,1.4-25.3c0-148.1,0-296.2,0-444.2   c0-10.2-0.2-20.4-1-30.7c-0.9-11.2-2.3-22.3-4.3-33.3c-5.4-29.1-14.4-56.9-27.2-83.6c-18.3-38-42.9-71.4-73.9-100.2   c-30.3-28.2-64.7-49.9-103.1-65.3c-1.1-0.5-2.3-0.8-3.7-1.2c-8.5,27.1-12,54.5-11.4,82.5c1.7,0.9,3,1.7,4.4,2.4   c52.5,26.9,91.5,67,116.5,120.4c15.4,32.9,23.1,67.6,23.1,104c0,149.7,0,299.3,0,449c0,1.4,0,2.9,0,4.3c0,5.3-0.6,10.5-1.8,15.7   c-4.1,18.7-13.4,34.5-27.4,47.4c-13.2,12.2-28.7,20.1-46.4,23.5c-6.1,1.2-12.4,1.5-18.6,1.8c-4.3-0.4-8.7-0.5-12.9-1.2   c-30.5-5.6-52.9-22.3-66.8-50c-6.6-13.1-9-27.1-9-41.8c0.1-226.6,0.1-453.2,0-679.7c0-11.7,0.5-23.3,1.9-34.9   c2-17,5.4-33.7,10.4-50.1c26.3-86.4,91.4-155.5,176-186.9c27.3-10.1,55.6-15.9,84.6-17.4c12.5-0.6,24.9-0.5,37.4,0.5   c14.1,1.1,28,3.1,41.7,6.3c51.1,11.9,96.1,35.6,133.8,72c59.1,57,89.6,126.8,89.9,208.9c0.5,136.9,0.1,273.7,0.1,410.6   c0,5.6-0.5,11.2-1.6,16.7c-5.4,27.1-27.9,49.8-55,55.3c-3.9,0.8-7.9,1.2-11.8,1.8c-1.1-0.1-2.2-0.1-3.3-0.2c-6.9-0.3-13.7-1-20.3-3   c-30.9-9.4-51.6-37.5-51.4-69.8c0.2-21.1,0.6-42.2,0.6-63.3c0.1-56.5,0-112.9,0.1-169.4c0-6.9,0.4-13.7,0.9-20.6   c1.4-17.8,5.2-35.1,11.2-51.8c17.2-47.7,47.5-85,90.4-112c1.3-0.8,2.6-1.7,3.8-2.5c0.3-23.9-8.9-69.7-16.4-82.2   c-1.1,0.5-2.2,1-3.4,1.6c-29.2,14.1-55.3,32.6-78.4,55.3c-37.4,36.8-63.4,80.3-77.7,130.8c-4.9,17.4-8,35.2-9.8,53.2   c-0.6,6.2-1.2,12.4-1.2,18.6c0.1,61.6,0.1,123.1,0,184.7c0,16.6-0.3,33.3-0.5,49.9c-0.2,13.5,0.5,26.8,3.3,40.1   c10.3,48.6,44,89.5,89.8,108.8c14.2,6,29,9.8,44.4,11.2c5.7,0.5,11.5,0.3,17.2,0.4c0.8,0.2,1.5,0.5,2.3,0.4   c8.9-0.5,17.8-1.4,26.6-3.2c44.1-9,86-39.4,107.4-86.2c9.4-20.7,13.6-42.5,13.6-65.2c0-136.3,0-272.5,0-408.8   c0-17-1.1-33.9-3.3-50.7c-2.7-20.2-7-40-13-59.4C1018.9,504.3,886.5,398.6,729,391.2c-22.3-1-44.5-0.1-66.5,2.9   c-19.5,2.6-38.7,6.8-57.6,12.5c-109,33-197.1,115.3-237.6,221.9c-12.1,31.7-19.5,64.5-22.5,98.2c-1,11.2-1.3,22.3-1.3,33.5   c0,206.1,0,412.3,0,618.4c0,22.1,0,44.1,0,66.2c0,12.5,1.4,24.9,4.3,37.1c16.8,72.3,79.4,127.8,157.4,132.2   C507.8,1614.4,510.3,1614.2,512.9,1614.1z M862.7,172.6c-0.5-87.7-73.3-152.5-152.9-150.3c-79.7,0.2-148.4,66.6-148.5,150.3   c-0.2,80.5,65.1,150.7,150.7,150.7C795.2,323.4,862.4,256,862.7,172.6z M309.9,242.5c-86.8,0.8-150.1,70.8-150.8,149.4   c-0.7,83.4,67.4,152.1,150.9,152c80.4,0,150.3-64.9,150.5-150.5C460.7,310.9,394.5,243.2,309.9,242.5z M1100.6,643.1   c1.5,7.2,3.7,13.9,5.2,20.7c1.5,6.9,3,13.7,4.3,20.6c1.3,6.9,2.3,13.9,3.3,20.8c1,6.9,1.4,13.9,2.4,20.9c2.7,0.6,5.2,1.1,7.7,1.7   c66.6,16.4,116.5,61.4,142.8,115c14.7,30.1,21.9,61.9,21.9,95.4c0,144.7,0,289.4,0,434.2c0,1.9,0,3.8,0,5.8   c0.3,21.3,19.7,42.9,47.3,38.1c16.4-2.9,27-13.1,31.7-29.2c1.2-4.2,1.4-8.5,1.4-12.8c0-143.3,0-286.6,0-429.8   c0-7.5-0.2-15-0.5-22.5c-0.4-11.7-1.8-23.2-3.8-34.8c-4.9-29.4-14.2-57.3-27.6-83.9c-37-73-106.7-132.8-194.1-153.7   c-12.9-3.1-25.9-5.5-39.2-6.6C1102.5,643.1,1101.7,643.1,1100.6,643.1z M320.9,662.5c-5.5-0.4-10.2,0.6-14.9,1.3   c-17.1,2.5-33.9,6.2-50.4,11.4c-49,15.3-92.4,40.4-129.8,75.6c-38,35.8-66.2,78.1-84.5,127.1c-8.2,22.1-14.1,44.8-17.3,68.1   c-1.1,7.9-2,15.9-2.8,23.8c-0.4,3.2-0.6,6.4-0.6,9.5c0,131.6,0,263.2,0,394.8c0,1.1-0.1,2.3,0,3.4c0.4,3.2,0.5,6.4,1.3,9.5   c4.5,18.4,22.4,32,42.8,30.1c16.2-1.5,31.6-13.7,35.5-31c0.9-4.1,1-8.2,1-12.4c0-123.6,0-247.2,0-370.8c0-8.1,0.3-16.3,0.6-24.4   c0.5-13.1,2.4-26.1,5.3-38.9c12.2-53.7,38.9-99,80.3-135.5c32.6-28.8,70.3-47.9,112.9-57.2c3.2-0.7,6.5-1.4,9.7-2.2   c0.7-9.4,1.2-18.5,2.2-27.5c1-9.2,2.2-18.4,3.7-27.5C317.2,680.7,319.1,671.8,320.9,662.5z M1142.9,586.4   c71.9-0.2,129-57.8,129.6-128.3c0.6-72.9-58.2-129.4-127.3-130.5c-70.7-1.1-131.1,55.5-131.5,128.7   C1013.3,527.3,1070.5,585.9,1142.9,586.4z"></path>	<path class="st1" d="M931.4,1243.9c3.9-0.6,7.9-1,11.8-1.8c27.1-5.5,49.6-28.1,55-55.3c1.1-5.5,1.6-11.1,1.6-16.7   c0-136.9,0.4-273.8-0.1-410.6c-0.3-82.1-30.7-152-89.9-208.9c-37.8-36.4-82.7-60.1-133.8-72c-13.7-3.2-27.6-5.2-41.7-6.3   c-12.5-1-24.9-1.2-37.4-0.5c-29.1,1.5-57.3,7.2-84.6,17.4c-84.6,31.4-149.7,100.5-176,186.9c-5,16.4-8.4,33.1-10.4,50.1   c-1.4,11.6-1.9,23.3-1.9,34.9c0,226.6,0,453.2,0,679.7c0,14.6,2.4,28.7,9,41.8c14,27.7,36.3,44.4,66.8,50c4.2,0.8,8.6,0.8,12.9,1.2   c0.1,1.8-1.1,2.9-1.9,4.3c-4.1,6.7-7.3,13.8-9.4,21.4c-3.7,13.7-3.3,27.2,2.6,40.3c2.3,5.1,5.5,9.7,8.9,14.2   c-2.5,0-5.1,0.3-7.6,0.1c-78.1-4.4-140.7-59.9-157.4-132.2c-2.8-12.2-4.3-24.5-4.3-37.1c0.1-22.1,0-44.1,0-66.2   c0-206.1,0-412.3,0-618.4c0-11.2,0.3-22.4,1.3-33.5c3.1-33.8,10.5-66.5,22.5-98.2C407.9,522,495.9,439.6,604.9,406.6   c18.8-5.7,38-9.9,57.6-12.5c22.1-3,44.3-3.9,66.5-2.9c157.5,7.3,289.9,113,335.2,259.6c6,19.4,10.3,39.2,13,59.4   c2.2,16.8,3.3,33.7,3.3,50.7c0.1,136.3,0,272.5,0,408.8c0,22.7-4.2,44.5-13.6,65.2c-21.3,46.9-63.3,77.2-107.4,86.2   c-8.8,1.8-17.7,2.7-26.6,3.2c-0.8,0-1.5-0.3-2.3-0.4c4.5-5.6,8.6-11.5,11.4-18.2c4.4-10.3,5.7-20.8,3.6-31.8   c-1.8-9.6-5.9-18.1-11.6-26C933.1,1246.6,932.3,1245.3,931.4,1243.9z"></path>	<path class="st2" d="M512.9,1614.1c-3.4-4.4-6.6-9-8.9-14.2c-5.8-13.1-6.3-26.6-2.6-40.3c2.1-7.6,5.3-14.7,9.4-21.4   c0.8-1.3,2-2.5,1.9-4.3c6.2-0.3,12.4-0.7,18.6-1.8c17.7-3.4,33.2-11.3,46.4-23.5c14-12.9,23.3-28.7,27.4-47.4   c1.1-5.2,1.7-10.4,1.8-15.7c0-1.4,0-2.9,0-4.3c0-149.7,0-299.3,0-449c0-36.4-7.7-71.1-23.1-104c-25-53.4-64-93.5-116.5-120.4   c-1.4-0.7-2.8-1.5-4.4-2.4c-0.6-28,2.9-55.4,11.4-82.5c1.4,0.5,2.6,0.8,3.7,1.2c38.4,15.4,72.8,37.2,103.1,65.3   c30.9,28.7,55.6,62.1,73.9,100.2c12.8,26.6,21.9,54.5,27.2,83.6c2,11,3.4,22.1,4.3,33.3c0.9,10.2,1,20.4,1,30.7   c0,148.1,0,296.2,0,444.2c0,8.5-0.2,16.9-1.4,25.3c-1.9,13.3-5.3,26.3-10.3,38.8c-20.3,51.1-66.8,91.7-122.1,104.2   c-12.5,2.8-25.2,4.4-38,4.5C514.8,1614.3,513.8,1614.2,512.9,1614.1z"></path>	<path class="st3" d="M862.7,172.6c-0.2,83.4-67.4,150.8-150.7,150.7c-85.6-0.1-150.8-70.2-150.7-150.7   c0.2-83.7,68.8-150.1,148.5-150.3C789.4,20.1,862.2,84.9,862.7,172.6z"></path>	<path class="st2" d="M309.9,242.5c84.5,0.7,150.8,68.4,150.6,150.9c-0.2,85.6-70.1,150.4-150.5,150.5c-83.5,0-151.6-68.6-150.9-152   C159.8,313.3,223.2,243.3,309.9,242.5z"></path>	<path class="st4" d="M1100.6,643.1c1.2,0,1.9-0.1,2.7,0c13.2,1.2,26.3,3.5,39.2,6.6c87.4,20.9,157.1,80.7,194.1,153.7   c13.5,26.5,22.7,54.5,27.6,83.9c1.9,11.5,3.4,23.1,3.8,34.8c0.3,7.5,0.5,15,0.5,22.5c0,143.3,0,286.6,0,429.8   c0,4.3-0.2,8.6-1.4,12.8c-4.7,16.1-15.3,26.3-31.7,29.2c-27.6,4.8-47-16.8-47.3-38.1c0-1.9,0-3.8,0-5.8c0-144.7,0-289.4,0-434.2   c0-33.5-7.2-65.3-21.9-95.4c-26.2-53.7-76.2-98.6-142.8-115c-2.5-0.6-5-1.1-7.7-1.7c-1-7-1.4-14-2.4-20.9c-1-7-2-13.9-3.3-20.8   c-1.3-6.9-2.8-13.8-4.3-20.6C1104.3,657,1102,650.4,1100.6,643.1z"></path>	<path class="st2" d="M320.9,662.5c-1.8,9.3-3.7,18.2-5.1,27.1c-1.5,9.1-2.7,18.3-3.7,27.5c-1,9-1.4,18.1-2.2,27.5   c-3.3,0.7-6.5,1.4-9.7,2.2c-42.6,9.3-80.3,28.4-112.9,57.2c-41.3,36.5-68,81.7-80.3,135.5c-2.9,12.8-4.8,25.8-5.3,38.9   c-0.3,8.1-0.6,16.3-0.6,24.4c0,123.6,0,247.2,0,370.8c0,4.2,0,8.3-1,12.4c-3.9,17.3-19.3,29.5-35.5,31   c-20.4,1.8-38.3-11.7-42.8-30.1c-0.7-3.1-0.9-6.3-1.3-9.5c-0.1-1.1,0-2.2,0-3.4c0-131.6,0-263.2,0-394.8c0-3.2,0.3-6.4,0.6-9.5   c0.9-7.9,1.8-15.9,2.8-23.8c3.2-23.4,9.1-46.1,17.3-68.1c18.3-48.9,46.5-91.3,84.5-127.1c37.4-35.2,80.8-60.3,129.8-75.6   c16.5-5.2,33.3-8.9,50.4-11.4C310.6,663.1,315.3,662.1,320.9,662.5z"></path>	<path class="st4" d="M931.4,1243.9c0.9,1.3,1.7,2.7,2.6,3.9c5.7,7.8,9.8,16.4,11.6,26c2.1,11,0.8,21.6-3.6,31.8   c-2.9,6.7-6.9,12.6-11.4,18.2c-5.7-0.1-11.5,0.1-17.2-0.4c-15.3-1.5-30.2-5.2-44.4-11.2c-45.8-19.3-79.5-60.2-89.8-108.8   c-2.8-13.2-3.5-26.6-3.3-40.1c0.3-16.6,0.5-33.3,0.5-49.9c0.1-61.6,0.1-123.1,0-184.7c0-6.3,0.6-12.4,1.2-18.6   c1.8-18,4.9-35.8,9.8-53.2c14.3-50.5,40.4-94,77.7-130.8c23.1-22.7,49.2-41.2,78.4-55.3c1.1-0.5,2.3-1.1,3.4-1.6   c7.6,12.5,16.7,58.3,16.4,82.2c-1.2,0.8-2.5,1.6-3.8,2.5c-42.9,27-73.2,64.3-90.4,112c-6,16.8-9.9,34.1-11.2,51.8   c-0.5,6.8-0.9,13.7-0.9,20.6c-0.1,56.5,0,112.9-0.1,169.4c0,21.1-0.5,42.2-0.6,63.3c-0.3,32.3,20.5,60.4,51.4,69.8   c6.6,2,13.4,2.8,20.3,3C929.2,1243.8,930.3,1243.9,931.4,1243.9z"></path>	<path class="st4" d="M1142.9,586.4c-72.4-0.5-129.6-59.1-129.2-130.1c0.4-73.1,60.9-129.8,131.5-128.7   c69,1.1,127.9,57.7,127.3,130.5C1272,528.6,1214.8,586.2,1142.9,586.4z"></path></g></svg>