<?xml version="1.0" encoding="UTF-8" standalone="no"?><!DOCTYPE svg PUBLIC "-//W3C//DTD SVG 1.1//EN" "http://www.w3.org/Graphics/SVG/1.1/DTD/svg11.dtd"><svg width="100%" height="100%" viewBox="0 0 225 225" version="1.1" xmlns="http://www.w3.org/2000/svg" xmlns:xlink="http://www.w3.org/1999/xlink" xml:space="preserve" xmlns:serif="http://www.serif.com/" style="fill-rule:evenodd;clip-rule:evenodd;stroke-linejoin:round;stroke-miterlimit:2;"><rect x="0" y="0" width="225" height="225" style="fill:#70997f;"/><path d="M187.875,37.125l0,150.75l-150.75,0l-0,-150.75l150.75,-0Zm-134.088,128.616l-0,5.472l8.759,0l82.699,-118.22l-12.587,0l-10.558,15.093l-10.568,-15.093l-12.592,0l16.867,24.089l-11.831,16.912l-28.709,-41.001l-12.591,0l35.008,49.997l-43.897,62.751Zm26.912,5.472l12.588,0l8.516,-12.174l8.525,12.174l12.591,0l-14.823,-21.17l12.465,-17.819l27.3,38.989l12.592,0l-33.599,-47.984l45.153,-64.547l-0,-5.689l-8.609,0l-82.699,118.22Zm-26.912,-107.586l-0,17.983l15.519,22.164l-15.519,22.185l-0,17.994l28.108,-40.181l-0.002,-0.001l0.002,-0.002l-28.108,-40.142Zm118.22,98.863l-0,-17.983l-15.192,-21.695l15.192,-21.717l-0,-17.994l-27.781,39.713l27.781,39.676Z" style="fill:#fff;"/></svg>