<svg id="prefix__artwork" xmlns="http://www.w3.org/2000/svg" viewBox="0 0 135 40">
  <defs>
    <style>
      .prefix__cls-5 {
        fill: #fff
      }
    </style>
  </defs>
  <rect width="135" height="40" rx="5" ry="5" />
  <path
    d="M130 .8a4.2 4.2 0 014.2 4.2v30a4.2 4.2 0 01-4.2 4.2H5A4.2 4.2 0 01.8 35V5A4.2 4.2 0 015 .8h125m0-.8H5C2.25 0 0 2.25 0 5v30c0 2.75 2.25 5 5 5h125c2.75 0 5-2.25 5-5V5c0-2.75-2.25-5-5-5z"
    fill="#a6a6a6" />
  <path d="M20.72 19.42l-10.65 11.3a2.877 2.877 0 004.24 1.73l.03-.02 11.98-6.91-5.61-6.11z" fill="#ea4335" />
  <path d="M31.49 17.5h-.01l-5.17-3.01-5.83 5.19 5.85 5.85 5.15-2.97c.9-.49 1.51-1.44 1.51-2.53s-.6-2.04-1.5-2.52z"
    fill="#fbbc04" />
  <path d="M10.07 9.28c-.06.24-.1.48-.1.74v19.97c0 .26.03.5.1.74l11.01-11.01L10.07 9.28z" fill="#4285f4" />
  <path d="M20.8 20l5.51-5.51-11.97-6.94a2.889 2.889 0 00-4.27 1.72L20.8 19.99z" fill="#34a853" />
  <path class="prefix__cls-5"
    d="M44.66 11.76h3.04l.03.24c.01.08.02.17.02.27 0 .37-.06.74-.17 1.1s-.31.69-.59.97c-.28.3-.62.52-1 .69-.38.16-.82.24-1.31.24-.45 0-.87-.08-1.27-.24a3.178 3.178 0 01-1.74-1.71c-.17-.4-.26-.83-.26-1.3s.09-.9.26-1.3.4-.74.7-1.03.64-.52 1.04-.68c.4-.16.82-.24 1.27-.24.48 0 .91.08 1.32.25.4.17.74.4 1.01.7l-.69.69c-.2-.23-.44-.4-.72-.52s-.59-.18-.94-.18c-.3 0-.58.06-.85.17a2.254 2.254 0 00-1.22 1.2c-.12.28-.18.6-.18.96s.06.67.18.96c.12.28.29.53.5.73s.45.36.72.47c.27.11.56.17.86.17.4 0 .72-.06.97-.18s.45-.26.62-.43c.12-.12.23-.27.32-.46s.15-.4.18-.62h-2.1v-.89zM50.38 8.9h1.13l2.34 6.23h-1.09l-.57-1.6h-2.5l-.57 1.6h-1.09l2.34-6.23zm1.49 3.74l-.65-1.84-.24-.73h-.05l-.24.73-.65 1.84h1.84zM56.74 15.27c-.35 0-.68-.06-.97-.18-.29-.12-.54-.29-.75-.51a2.22 2.22 0 01-.48-.8c-.11-.31-.17-.66-.17-1.04V8.9h.98v3.89a2 2 0 00.09.61c.06.19.14.35.26.49s.26.24.43.32c.17.08.37.12.6.12s.43-.04.6-.12c.17-.08.32-.19.43-.32s.2-.3.26-.49a2 2 0 00.09-.61V8.9h.98v3.84c0 .38-.05.72-.16 1.03a2.2 2.2 0 01-.47.8c-.21.22-.45.39-.74.52s-.62.19-.98.19zM61.63 15.13V9.84h-1.74V8.9h4.46v.94h-1.74v5.29h-.98zM65.21 8.9h.98v6.23h-.98V8.9zM69.36 8.9h.98v6.23h-.98V8.9zM73.6 15.27c-.25 0-.49-.04-.73-.11-.23-.07-.45-.18-.65-.33s-.38-.32-.53-.54c-.15-.21-.27-.46-.35-.75l.94-.38c.04.16.1.31.18.46.08.14.17.27.29.37.11.1.24.19.38.25s.3.09.47.09c.14 0 .28-.02.42-.06a.918.918 0 00.59-.45.79.79 0 00.09-.38c0-.13-.02-.24-.07-.35-.05-.1-.12-.2-.22-.29s-.23-.17-.39-.25c-.16-.08-.36-.16-.58-.24l-.39-.14c-.17-.06-.34-.13-.52-.23s-.34-.21-.48-.35c-.14-.14-.26-.3-.35-.48-.09-.19-.14-.4-.14-.65 0-.23.05-.45.14-.66.1-.21.23-.39.41-.54s.38-.28.62-.37c.24-.09.51-.13.8-.13s.57.04.8.13.42.19.58.32a1.855 1.855 0 01.59.85l-.89.37c-.03-.09-.07-.18-.13-.27a.955.955 0 00-.52-.41 1.07 1.07 0 00-.41-.07 1.226 1.226 0 00-.71.22c-.09.07-.16.15-.21.24a.654.654 0 00.19.84c.18.14.45.27.8.39l.39.14c.24.08.47.18.67.29s.38.24.53.4c.15.15.27.33.35.53.08.2.13.44.13.71 0 .32-.07.6-.2.83-.13.23-.3.42-.5.57s-.43.26-.68.33c-.25.07-.49.1-.73.1zM72.21 7.3l.93.08.39.51h.09l.39-.51h.93v.06l-.94.97h-.85l-.94-.97V7.3zM45.77 24.65h4.71c.02.12.04.24.05.37s.03.27.03.41c0 .58-.09 1.15-.27 1.71a3.76 3.76 0 01-.92 1.51c-.44.46-.96.81-1.55 1.07s-1.27.38-2.04.38c-.69 0-1.35-.13-1.96-.38-.62-.25-1.15-.6-1.61-1.05a4.99 4.99 0 01-1.49-3.62 4.99 4.99 0 011.49-3.62c.46-.45 1-.8 1.61-1.05.62-.25 1.27-.38 1.96-.38.74 0 1.42.13 2.04.39.62.26 1.15.63 1.57 1.09l-1.07 1.07c-.31-.35-.69-.62-1.11-.81s-.91-.28-1.45-.28c-.46 0-.9.09-1.32.26-.42.17-.8.41-1.12.72s-.58.69-.77 1.13-.28.94-.28 1.48.09 1.04.28 1.48c.19.44.45.82.77 1.13s.7.55 1.12.72c.42.17.87.26 1.34.26.62 0 1.12-.09 1.51-.28.38-.19.7-.41.96-.66.19-.18.36-.42.5-.71s.24-.61.28-.97h-3.27v-1.38zM54.95 23.05c.5 0 .97.09 1.39.26.42.18.79.42 1.09.74.31.31.54.69.71 1.12s.26.9.26 1.4-.09.97-.26 1.4a3.4 3.4 0 01-.71 1.12c-.31.32-.67.56-1.09.74-.42.18-.89.26-1.39.26s-.97-.09-1.39-.26c-.42-.18-.79-.42-1.09-.74-.31-.31-.54-.69-.71-1.12-.17-.43-.26-.9-.26-1.4s.09-.97.26-1.4.41-.81.71-1.12c.31-.31.67-.56 1.09-.74.42-.18.89-.26 1.39-.26zm0 5.66c.25 0 .5-.05.73-.15.23-.1.44-.24.63-.42.18-.18.33-.4.44-.67.11-.27.16-.56.16-.9s-.05-.63-.16-.9-.25-.49-.44-.67c-.18-.18-.39-.32-.63-.42-.23-.1-.48-.15-.73-.15s-.5.05-.73.15c-.23.1-.44.24-.63.42-.18.18-.33.4-.44.67-.11.27-.16.56-.16.9s.05.63.16.9.25.49.44.67c.18.18.39.32.63.42.23.1.48.15.73.15zM62.61 23.05c.5 0 .97.09 1.39.26.42.18.79.42 1.09.74.31.31.54.69.71 1.12s.26.9.26 1.4-.09.97-.26 1.4a3.4 3.4 0 01-.71 1.12c-.31.32-.67.56-1.09.74-.42.18-.89.26-1.39.26s-.97-.09-1.39-.26c-.42-.18-.79-.42-1.09-.74-.31-.31-.54-.69-.71-1.12-.17-.43-.26-.9-.26-1.4s.09-.97.26-1.4.41-.81.71-1.12c.31-.31.67-.56 1.09-.74.42-.18.89-.26 1.39-.26zm0 5.66c.25 0 .5-.05.73-.15.23-.1.44-.24.63-.42.18-.18.33-.4.44-.67.11-.27.16-.56.16-.9s-.05-.63-.16-.9-.25-.49-.44-.67c-.18-.18-.39-.32-.63-.42-.23-.1-.48-.15-.73-.15s-.5.05-.73.15c-.23.1-.44.24-.63.42-.18.18-.33.4-.44.67-.11.27-.16.56-.16.9s.05.63.16.9.25.49.44.67c.18.18.39.32.63.42.23.1.48.15.73.15zM70.22 33.02c-.46 0-.87-.06-1.22-.18s-.66-.28-.92-.47-.47-.4-.64-.63c-.17-.23-.29-.46-.37-.68l1.43-.58c.13.35.34.64.65.86s.67.33 1.08.33c.62 0 1.1-.18 1.45-.54s.52-.87.52-1.52v-.54h-.08c-.21.3-.49.54-.86.74-.37.2-.79.3-1.28.3-.4 0-.8-.09-1.17-.26-.38-.17-.71-.41-1.01-.72-.29-.31-.52-.68-.7-1.12-.17-.44-.26-.91-.26-1.43s.09-.99.26-1.42.4-.8.7-1.11c.29-.31.63-.55 1.01-.72.38-.17.77-.26 1.17-.26.49 0 .91.1 1.28.3.36.2.65.45.86.74h.08v-.82h1.45v6.24c0 .57-.09 1.07-.26 1.51-.18.44-.41.8-.72 1.1s-.66.52-1.08.67c-.42.15-.87.23-1.36.23zm.06-4.31c.24 0 .48-.05.72-.14.23-.09.44-.23.61-.41s.32-.41.42-.67c.11-.27.16-.57.16-.92s-.05-.64-.16-.91-.25-.49-.42-.67c-.18-.18-.38-.32-.61-.41-.23-.1-.47-.14-.72-.14s-.49.05-.72.14c-.23.1-.43.24-.61.42s-.32.41-.43.67c-.11.27-.16.57-.16.9s.05.64.16.91.25.49.43.67c.18.18.38.32.61.42s.47.14.72.14zM75.12 29.88v-9.67h1.5v9.67h-1.5zM84.27 28.3c-.28.51-.67.94-1.19 1.28-.51.34-1.14.51-1.89.51-.5 0-.95-.09-1.37-.26a3.29 3.29 0 01-1.09-.74c-.31-.31-.54-.69-.71-1.11-.17-.43-.26-.9-.26-1.41 0-.48.08-.93.24-1.36.16-.43.39-.8.68-1.12a3.242 3.242 0 012.44-1.04c.51 0 .97.09 1.37.26.4.17.74.41 1.02.72s.49.67.64 1.11.22.9.22 1.42v.12s-.01.09-.01.12c0 .04-.01.07-.01.11h-5.09c.03.31.1.59.23.82a1.836 1.836 0 001.07.92c.23.07.45.11.66.11.43 0 .79-.1 1.07-.31s.51-.46.69-.77l1.28.63zm-1.39-2.55c-.02-.14-.06-.29-.13-.45s-.17-.32-.31-.46c-.14-.14-.32-.26-.54-.36s-.49-.15-.8-.15c-.43 0-.8.13-1.11.38-.31.26-.52.6-.63 1.03h3.52zM88.7 29.88v-9.67h3.35c.43 0 .84.07 1.22.22.38.14.72.35 1.01.61.29.26.51.57.68.94.17.36.25.77.25 1.21s-.08.83-.25 1.19c-.17.36-.39.68-.68.94-.29.26-.62.46-1.01.61-.38.14-.79.22-1.22.22h-1.82v3.74H88.7zm3.39-5.19c.25 0 .48-.04.67-.13.2-.09.37-.2.5-.34a1.568 1.568 0 00.42-1.03 1.523 1.523 0 00-.42-1.03 1.603 1.603 0 00-1.17-.47h-1.86v3.01h1.86zM96.17 29.88v-9.67h1.5v9.67h-1.5zM103.36 29.07h-.08c-.2.26-.46.5-.77.71-.32.21-.72.32-1.2.32-.35 0-.68-.06-.99-.17s-.57-.27-.8-.47c-.23-.2-.4-.44-.53-.72-.13-.27-.2-.58-.2-.91 0-.35.07-.67.21-.95.14-.28.33-.51.58-.7.25-.19.54-.33.88-.44s.71-.16 1.11-.16c.44 0 .81.04 1.11.13.3.09.52.16.68.24v-.26c0-.2-.04-.38-.13-.55-.08-.17-.2-.32-.35-.44s-.32-.22-.51-.28c-.19-.07-.39-.1-.59-.1-.33 0-.63.07-.9.2s-.5.34-.71.63l-1.19-.78c.31-.43.71-.76 1.17-.98.47-.22 1-.33 1.59-.33.98 0 1.74.24 2.27.73.54.49.8 1.18.8 2.08v4.02h-1.47v-.81zm0-1.94c-.2-.12-.42-.21-.66-.28-.24-.07-.52-.11-.84-.11-.47 0-.84.11-1.12.32-.28.22-.42.48-.42.78 0 .16.04.3.11.43.07.12.16.23.28.32s.24.16.39.2c.15.04.3.07.45.07.24 0 .47-.05.7-.14.22-.09.41-.22.57-.38.16-.16.29-.34.39-.55.1-.21.15-.43.15-.66zM107.97 29.51l-2.75-6.24h1.67l1.82 4.39h.07l1.77-4.39h1.66l-4.14 9.53h-1.59l1.5-3.29z" />
</svg>